<svg xmlns="http://www.w3.org/2000/svg" width="1150" height="1150" fill="none" stroke="#000" stroke-width="68" stroke-linejoin="round" xmlns:v="https://vecta.io/nano"><path d="M622.917 991.54c-43.365 30.09-113.084 13.99-128.177-48.396a82.62 82.62 0 0 0-17.524-34.261 82.61 82.61 0 0 0-31.143-22.604 82.6 82.6 0 0 0-74.623 5.786c-73.935 45.041-158.604-39.579-113.563-113.563 6.762-11.1 10.808-23.639 11.811-36.597a82.61 82.61 0 0 0-6.038-37.979 82.6 82.6 0 0 0-22.578-31.13c-9.87-8.457-21.597-14.464-34.226-17.535-84.141-20.413-84.141-140.109 0-160.521a82.61 82.61 0 0 0 56.865-48.667c4.978-12.016 7.049-25.037 6.044-38.004s-5.059-25.514-11.83-36.619c-45.041-73.935 39.58-158.604 113.563-113.562 47.917 29.133 110.017 3.354 123.242-51.032 20.412-84.141 140.108-84.141 160.52 0a82.61 82.61 0 0 0 48.667 56.865c12.016 4.978 25.037 7.049 38.004 6.044s25.514-5.059 36.619-11.83c73.935-45.041 158.604 39.58 113.562 113.563-6.761 11.1-10.807 23.639-11.81 36.597a82.6 82.6 0 0 0 6.038 37.979c4.972 12.009 12.708 22.675 22.578 31.131a82.62 82.62 0 0 0 34.226 17.535c71.496 17.345 82.226 106.327 32.295 145.187" stroke-linecap="round"/><path d="M431.25 575c0 38.125 15.145 74.688 42.103 101.647S536.875 718.75 575 718.75s74.688-15.145 101.647-42.103S718.75 613.125 718.75 575s-15.145-74.688-42.103-101.647S613.125 431.25 575 431.25s-74.688 15.145-101.647 42.103S431.25 536.875 431.25 575zm383.333 479.17l239.587-143.753-239.587-143.75v287.503z"/></svg>