<svg xmlns="http://www.w3.org/2000/svg" width="1150" height="1150" fill="#000" xmlns:v="https://vecta.io/nano"><path d="M396.75 215.815c48.636-30.187 82.896-51.366 111.502-65.31 27.84-13.56 47.582-18.735 66.748-18.735s38.909 5.175 66.748 18.735c28.654 13.896 62.867 35.123 111.502 65.31l95.834 59.465c46.048 28.606 78.391 48.683 102.541 67.179 23.432 17.969 36.896 32.775 46.144 49.642 9.251 16.914 14.661 36.704 17.491 66.987 2.92 31.05 2.97 70.198 2.97 125.686v72.881c0 94.396-.1 161.767-6.71 212.894-6.52 50.216-18.83 79.35-39.29 100.577-20.365 21.035-48.061 33.544-96.026 40.204-49.162 6.8-113.993 6.9-205.37 6.9a35.93 35.93 0 0 0-25.412 10.52 35.94 35.94 0 0 0-10.526 25.42c0 9.53 3.786 18.67 10.526 25.41a35.93 35.93 0 0 0 25.412 10.52h2.779c87.975 0 157.837 0 212.462-7.62 56.398-7.81 101.967-24.39 137.805-61.43 35.61-36.843 51.42-83.466 58.94-141.206 7.28-56.302 7.28-128.32 7.28-219.554v-77.289c0-53.332 0-95.834-3.25-130.621-3.36-35.938-10.4-66.269-26.02-94.779-15.67-28.606-37.38-50.6-65.553-72.211-27.216-20.891-62.579-42.789-106.71-70.198l-99.044-61.477c-46.623-28.941-83.998-52.133-116.294-67.85-33.493-16.291-64.304-25.97-98.229-25.97s-64.735 9.727-98.229 25.971c-32.296 15.717-69.671 38.909-116.294 67.85l-99.044 61.477c-44.083 27.409-79.493 49.355-106.71 70.198-28.223 21.563-49.881 43.605-65.55 72.211-19.071 34.883-25.396 72.641-27.792 119.744a35.94 35.94 0 0 0 1.927 13.977 35.95 35.95 0 0 0 7.159 12.158c3.166 3.539 7.003 6.416 11.288 8.464a35.93 35.93 0 0 0 13.677 3.468c4.743.24 9.487-.462 13.957-2.066a35.9 35.9 0 0 0 12.087-7.279c3.508-3.201 6.347-7.066 8.353-11.371a35.95 35.95 0 0 0 3.332-13.71c2.204-43.316 7.714-68.185 19.07-88.885 9.248-16.867 22.713-31.673 46.192-49.642 24.102-18.496 56.446-38.573 102.494-67.179l95.833-59.465zM95.833 586.98a35.94 35.94 0 0 0-35.937 35.938 35.94 35.94 0 0 0 35.938 35.937A395.31 395.31 0 0 1 375.361 774.64c74.136 74.135 115.785 174.685 115.785 279.53a35.94 35.94 0 0 0 35.937 35.94 35.94 35.94 0 0 0 35.938-35.94c0-123.908-49.222-242.739-136.837-330.353S219.739 586.98 95.833 586.98zM59.896 766.668a35.94 35.94 0 0 1 35.938-35.938 323.44 323.44 0 0 1 323.438 323.44 35.94 35.94 0 0 1-35.938 35.94 35.94 35.94 0 0 1-35.937-35.94c0-138.96-112.605-251.565-251.563-251.565a35.94 35.94 0 0 1-35.937-35.937zM95.833 874.48a35.94 35.94 0 0 0-35.937 35.938 35.94 35.94 0 0 0 35.938 35.937 107.81 107.81 0 0 1 76.235 31.578c20.219 20.219 31.578 47.637 31.578 76.237a35.94 35.94 0 0 0 35.937 35.94 35.94 35.94 0 0 0 35.938-35.94c0-47.66-18.932-93.362-52.63-127.06a179.69 179.69 0 0 0-127.058-52.63z"/></svg>