<svg width="97" height="81" viewBox="0 0 97 81" fill="none" xmlns="http://www.w3.org/2000/svg">
<path d="M38.1255 23.2679C38.1064 22.5023 37.7296 22.9459 37.6723 22.2757C38.6263 22.2757 39.7282 21.5888 40.6512 21.3742C40.8328 21.6463 40.9555 21.9534 41.0113 22.2757C40.4174 22.4141 38.7122 23.2202 38.1255 23.2679ZM74.7564 15.0564L75.3836 14.8656V17.0431H75.8368V13.7971C75.4933 13.8877 75.4647 14.0738 75.1642 14.298C74.8065 14.5651 74.754 14.4864 74.754 15.0588L74.7564 15.0564ZM76.7407 15.0564C77.0841 14.9777 77.1175 14.868 77.4562 14.7869V17.0431H77.9069V13.7971C77.585 13.8711 76.7622 14.4124 76.7407 15.0564ZM24.1399 21.7343C25.4302 21.7343 25.1321 21.305 25.1321 24.4413H25.6735V21.7343H26.575V21.2836H24.1399V21.7343ZM69.8839 14.6056V14.8775C70.9833 14.8775 69.934 14.2455 70.9667 14.2455C71.2576 14.2455 71.3268 14.6009 71.3268 14.8775C71.3268 15.4141 69.8171 15.9818 69.7932 17.0431H71.8682V16.5899H70.6041C70.8164 15.8029 71.83 16.0438 71.8682 14.3361C71.3172 13.9665 71.2934 13.7947 70.7854 13.7947C70.5586 13.7837 70.3365 13.8627 70.1677 14.0146C69.9988 14.1664 69.8968 14.3789 69.8839 14.6056ZM73.1322 16.6806C72.505 16.6806 72.6815 15.6097 72.6815 14.8775C72.6815 14.5484 72.7864 14.5603 72.8603 14.2455C73.5758 14.2622 73.6736 14.2693 73.6736 15.6884C73.6736 16.0128 73.5257 16.6806 73.1322 16.6806ZM72.0494 15.5095C72.0494 17.7109 74.1244 17.5964 74.1244 16.0509C74.1244 15.0969 74.2794 13.7947 73.1322 13.7947C72.4119 13.7971 72.0494 14.7511 72.0494 15.5095ZM18.8071 24.4413H21.0633V23.9905H19.2579V23.0985H20.9727V22.5572H19.2579V21.7463H21.0633V21.2955H18.8071V24.4532V24.4413ZM21.6047 21.8178C21.6047 23.8117 23.3767 22.352 23.4077 23.8021C23.1406 23.8641 22.0531 24.4031 21.9648 23.3514H21.4306C21.4269 23.6677 21.535 23.9751 21.7359 24.2195C21.9893 24.4253 22.2963 24.5544 22.6207 24.5915C23.8537 24.6774 24.6098 23.0294 23.1478 22.6239C22.6302 22.4808 22.1938 22.5381 22.0626 21.9967C22.3011 21.6747 22.79 21.3551 23.2265 21.9967C23.4507 22.333 23.2265 22.259 23.7774 22.259C23.7774 20.6039 21.6119 21.1476 21.6119 21.8083L21.6047 21.8178ZM50.8374 18.4788C51.944 20.1316 53.4132 18.5623 55.7099 18.0281C55.7099 16.6257 55.6789 16.6305 53.6612 17.4223L50.8374 18.4788ZM48.3093 17.3054C48.6717 17.67 49.1518 17.894 49.664 17.9374C49.9955 17.9374 50.68 17.594 51.0067 17.4771C51.6459 17.2386 54.744 16.0772 55.1685 16.0462C55.1685 15.4666 55.0779 15.2997 55.0779 14.7821C54.7641 14.7701 54.4515 14.8271 54.1621 14.9491L49.1536 16.9858C48.8746 17.1122 48.5669 17.1957 48.3189 17.3126L48.3093 17.3054ZM45.7836 15.9531C45.9768 16.2393 46.709 16.764 47.1383 16.764C47.5008 16.764 52.1468 14.9514 52.898 14.6772L54.806 13.9617C54.7082 13.5395 54.4769 12.9862 54.4459 12.607C54.0237 12.6571 46.2344 15.7266 45.7932 15.9603L45.7836 15.9531ZM1.76404 63.3284H32.163C33.117 63.3284 33.792 61.8211 32.9572 60.9983C32.6884 60.7433 32.348 60.5769 31.9818 60.5213H2.12417C1.75757 60.5016 1.39615 60.6147 1.10617 60.8398C0.816184 61.065 0.617065 61.3871 0.545315 61.7472C0.406986 62.4627 1.09148 63.3189 1.76404 63.3189V63.3284ZM0.5 44.4704C0.514725 44.849 0.671725 45.2081 0.939645 45.476C1.20757 45.7439 1.56669 45.9009 1.9453 45.9157H32.0795C33.5105 45.9157 34.2427 43.0274 31.364 43.0274H2.66556C2.15485 43.0211 1.64959 43.1329 1.18926 43.3542C0.993695 43.4718 0.829096 43.6345 0.709194 43.8286C0.589291 44.0228 0.517565 44.2428 0.5 44.4704ZM62.1231 11.9893L61.131 10.0956C61.4935 9.41114 61.4649 9.34913 61.5913 8.66464C61.6748 8.20911 61.7034 8.29258 61.763 8.20433V10.0098C61.5593 10.077 61.3454 10.1077 61.131 10.1004L62.1231 11.9893ZM60.1317 14.0762C59.8336 15.1923 59.0107 15.5477 57.9661 15.791C58.0878 16.1743 58.1787 16.5666 58.238 16.9644L60.4012 16.2489C60.468 17.0431 61.0308 17.5821 60.6635 18.6768C60.1484 20.2127 61.3599 21.4958 61.9371 22.8362C62.3569 23.8093 61.8036 24.2553 60.7637 24.2791C60.7947 24.6726 60.9402 24.8539 60.9497 25.2736C60.9593 25.6934 60.8138 25.9343 60.7709 26.3612C60.6707 27.3343 60.4894 27.4678 59.8622 27.8876C59.8956 29.383 61.3433 30.7686 58.0544 30.6899C56.2108 30.6446 55.9484 29.2113 54.3839 31.0739C52.9195 32.815 51.0187 36.2589 51.0187 38.4459H51.832C51.832 36.5045 53.9117 32.4834 55.4094 31.1073C56.0868 30.492 57.5297 31.7226 59.13 31.4961C61.0976 31.2146 60.976 30.3036 60.8472 28.6913C60.7899 27.9997 61.0618 27.8971 61.2979 27.5275C61.5341 27.1578 61.4673 26.7666 61.5746 26.2706C61.705 25.7987 61.7637 25.3098 61.7487 24.8205C61.9456 24.813 62.1386 24.7633 62.3147 24.6748C62.4908 24.5864 62.6459 24.4612 62.7695 24.3077C63.485 23.4062 62.2472 21.7725 61.8369 20.9425C61.36 19.9742 61.2908 19.3637 61.5746 18.4144C61.8369 17.5368 61.1358 16.7044 61.1167 15.8887C62.655 15.531 63.8356 14.8894 65.3572 14.5365C65.3572 15.7003 64.9613 19.0322 65.517 19.7834C66.1037 20.5848 69.1708 20.3033 70.5922 20.3033C74.382 20.3033 77.9451 20.2151 81.7778 20.2127C82.7842 20.2127 83.4592 20.3033 84.4847 20.3033C87.8237 20.3033 90.1014 21.3623 92.1167 23.8498L92.9753 25.0662C94.2918 27.1149 94.4706 30.0746 93.7122 32.5168C93.0902 34.4751 91.8594 36.1837 90.1991 37.3941C87.5542 39.3904 85.1263 39.159 80.6855 39.159C76.0967 39.159 71.1622 39.0612 66.6141 39.159C65.5265 39.1829 65.3453 39.5883 65.3548 40.6973C65.3667 42.591 65.3548 44.4894 65.3548 46.3831C63.7807 44.5705 63.8117 44.0363 61.6342 42.2523C60.1865 41.0598 58.3501 39.9604 56.5471 39.4023C52.2541 38.0738 46.9213 38.899 43.5036 41.0408C41.6634 42.2263 40.061 43.7454 38.7789 45.5198C38.6072 45.7583 38.3807 46.1017 38.1064 46.2019V24.4413C39.1677 24.2028 40.8014 23.3513 41.8055 23.2679C41.8777 23.4799 41.9823 23.6794 42.1155 23.8594C42.2459 24.066 42.3637 24.2802 42.4685 24.5009C43.8685 27.3247 43.2031 29.1612 42.2443 32.0065C41.9367 32.9223 41.4454 34.0766 41.4454 35.0878C41.6873 35.0754 41.9296 35.1061 42.1609 35.1785C42.1895 33.8667 43.5918 30.7829 43.9424 29.0204C44.2048 27.8817 44.1628 26.694 43.8208 25.5765C43.5036 24.6679 42.6116 23.7067 42.6116 22.8171C43.8971 22.7885 44.8082 21.7463 46.0388 21.6437V21.2836C45.9538 21.2911 45.8682 21.28 45.7879 21.2512C45.7076 21.2224 45.6346 21.1765 45.5738 21.1166C45.3114 20.9139 45.4235 20.7899 45.0825 20.8113C44.6269 20.8424 44.0044 21.1214 43.6014 21.2883C42.9407 21.5531 42.5663 21.8321 41.7983 21.8321C41.6314 21.5125 41.4716 21.4291 41.4382 21.0188L44.1452 20.0267C43.7349 19.2492 43.3987 19.1037 42.5973 19.3804C41.9835 19.583 41.3849 19.8293 40.8062 20.1173C40.6856 19.8269 40.5953 19.5248 40.5367 19.2158L42.4256 18.5695C41.5527 16.9358 40.5176 18.3977 40.2219 17.916C39.8164 17.253 40.7776 15.8768 40.9803 15.3283C41.276 14.5245 40.8563 14.0452 40.7155 13.4394C40.9193 13.5063 41.1332 13.5369 41.3476 13.53C41.3476 12.7907 41.2569 12.4305 41.2569 11.727C41.9104 11.5529 41.9319 10.8063 42.3636 10.4868C42.7261 10.2149 42.23 10.4868 42.7929 10.6442L43.8208 9.23465C44.0211 8.93175 44.6555 8.00161 44.8678 7.84659C44.7843 8.19956 44.6293 8.36174 44.522 8.67656C44.3837 9.12732 44.448 9.24895 44.2358 9.64963C46.9714 9.64963 51.6889 7.47453 53.8902 5.77166C54.3573 5.42614 54.7386 4.97773 55.0045 4.46116C55.2704 3.94459 55.4139 3.37373 55.4237 2.79281C56.2728 3.36282 56.299 5.06093 56.4636 6.08409C56.5638 6.71134 56.5781 6.72326 57.1385 6.85444C58.5385 5.91475 57.3937 2.63302 56.776 1.71003C57.4915 1.9056 59.0894 4.71034 59.2922 5.2398C59.8836 6.78289 59.6642 8.78389 59.6642 10.7253C58.6864 10.8063 57.6966 11.4408 56.8666 11.6268C56.9692 12.0632 57.1385 12.3423 57.1385 12.8884C57.7634 12.8765 60.7709 11.7198 61.2884 11.4455C61.2574 12.8336 59.5855 12.929 58.5934 13.2629C58.2762 13.3678 57.7777 13.6015 57.4009 13.6111C57.4915 14.0046 57.6608 14.3147 57.6728 14.7845C58.0952 14.7483 58.5091 14.6444 58.8987 14.4768C59.2779 14.329 59.6929 14.0976 60.1078 14.0618L60.1317 14.0762ZM55.9818 1.89606C55.4285 1.52639 54.9682 1.15195 54.1764 1.08517C54.5914 1.94615 54.7536 3.59178 54.0905 4.51715C53.0221 6.00061 47.2909 8.50723 45.4259 8.66464C45.5451 8.14471 46.0269 7.72973 46.3536 7.3362C46.7758 6.83297 47.0691 6.68272 47.4102 6.04831C44.2048 6.04831 44.3908 8.18049 43.2603 8.48338C43.3223 8.20672 43.3677 8.26634 43.2603 8.03261C43.0291 7.96023 42.7868 7.92955 42.5448 7.94199L41.9605 8.98184C41.7959 9.36344 42.0702 9.15833 41.722 9.29427C41.5765 8.99138 41.691 8.7028 41.5861 8.52869C41.4287 8.27112 41.2569 8.46907 40.9111 8.30212C40.4174 9.33243 40.458 10.9041 40.551 12.0012C40.1145 11.7103 40.26 11.3382 39.5588 11.2857C39.337 11.4336 39.0818 11.6149 39.1438 11.9678C39.2435 12.2495 39.3614 12.5243 39.4968 12.7907C40.3983 14.5913 40.2982 14.4029 39.659 16.2584C39.3943 17.0264 39.4682 17.5201 39.4682 18.5051C38.8958 18.5528 33.47 20.6182 31.3235 20.9163C30.1921 21.0315 29.0543 21.0698 27.9177 21.0308C27.9177 21.7463 28.0728 21.5722 29.0935 21.6604C30.9801 21.8226 32.1129 21.6604 34.0185 21.1834C36.0529 20.6706 37.949 19.9217 39.7425 19.5139C39.8307 19.8262 39.9514 20.1283 40.1026 20.4154C39.3561 20.5895 35.9027 21.8655 34.7221 22.2543C33.2911 22.7313 31.7766 23.1248 30.1787 23.1224C29.4632 23.1224 28.96 23.1653 28.3733 23.213C28.8121 24.8563 35.2325 22.9602 36.0434 22.9435C35.8979 23.244 35.9527 23.7616 35.9527 24.2052C35.1299 24.2243 33.6966 24.7919 32.7569 24.9803C31.5095 25.2188 30.4625 25.1973 29.0053 25.1973V25.6505C27.1259 25.6505 2.73234 25.5121 1.74496 25.7268C1.15587 25.8532 0.69557 26.1871 0.600171 26.7499C0.290123 28.5625 1.91191 28.5363 3.02092 28.5363H28.2874C29.4799 28.5363 32.3419 28.9203 33.0383 28.0593C33.7729 27.1435 33.0502 26.4781 32.6185 25.8341C33.1242 25.5956 35.1562 25.2021 35.9575 25.2021V47.1869C35.9575 49.0185 35.9838 50.8669 35.9575 52.6938L35.8597 55.3173C35.8597 55.8396 35.9575 55.997 35.9551 56.5741C35.9551 58.8947 35.7906 61.1056 35.8597 63.4381C35.8597 63.7482 35.917 64.3277 35.9623 64.6878C36.134 66.0664 38.0778 65.7515 38.2042 64.5066L38.1255 55.0239C38.1564 53.0228 38.5232 51.0412 39.2106 49.1616C39.5985 48.2211 40.1137 47.3384 40.7418 46.5381C40.9517 46.2639 41.1592 46.0611 41.4048 45.7583C44.906 41.4057 51.1403 39.9222 56.5232 41.8588C59.3649 42.9165 61.7666 44.9022 63.3395 47.4945C64.9493 50.1681 65.3763 52.3503 65.3763 56.5574V78.6591C65.3071 79.4461 65.2475 80.2904 65.9439 80.6291C66.1145 80.7108 66.3026 80.749 66.4916 80.7403C66.6805 80.7316 66.8644 80.6761 67.0267 80.579C67.1949 80.4947 67.3345 80.3626 67.4279 80.1992C67.5213 80.0358 67.5642 79.8485 67.5514 79.6608C67.6301 66.9345 67.5514 54.2178 67.5514 41.5011H77.6565C83.9052 41.5011 89.6291 42.3143 93.7051 37.158C94.4206 36.2398 95.1766 35.25 95.6488 34.0575C96.2383 32.7088 96.5279 31.2481 96.4979 29.7765C96.4979 26.7857 95.241 23.857 93.8553 22.2256C92.224 20.3177 90.1944 18.8747 87.6043 18.2809C85.0142 17.687 80.8476 17.9565 77.7328 17.9565H67.537C67.537 16.9334 67.6849 15.81 67.537 14.7917C67.4774 14.3791 67.3796 14.162 67.3486 13.8067C67.9568 13.8067 68.6389 13.5825 69.1541 13.4465C70.399 13.115 71.5104 12.8121 72.8532 12.8121C73.7213 12.8121 74.1864 12.9934 74.9281 12.9934C74.9138 12.3542 74.4511 12.4663 73.447 12.3113C71.4818 12.0084 69.2852 12.3518 67.4035 12.7883C65.4311 13.2343 62.2639 14.007 60.5824 14.899C60.6778 14.5365 61.2598 13.84 61.5579 13.6182C62.5572 12.8741 68.8726 11.2333 70.3132 10.9948C73.137 10.5178 72.8269 10.9184 74.4773 10.9184V10.5583C73.3349 10.2912 72.7101 9.99069 71.4126 10.1076C70.3084 10.2101 69.2304 10.346 68.0737 10.4796C67.5817 10.5679 67.0952 10.6841 66.6164 10.8278C65.4025 11.1498 63.2536 12.0012 62.1064 12.0012C62.1184 11.498 62.2758 11.5123 62.2877 11.0091C62.8649 10.9971 64.1838 10.42 64.9589 10.1624C66.8907 9.51846 72.3523 8.18048 73.9264 8.93414C73.7547 6.86397 65.4263 8.82443 64.0121 9.3062C63.5412 9.4748 63.0534 9.59155 62.5572 9.65441C62.5778 8.91707 62.5307 8.17941 62.4165 7.45069C62.2972 6.7662 62.0731 6.19857 62.0158 5.50454C61.7436 5.51447 61.4726 5.54476 61.2049 5.59517C61.2049 6.07216 60.8543 8.76003 60.5729 9.20364C60.5729 6.41083 60.3511 5.17779 59.2731 3.37713C58.6315 2.30628 56.7879 0.114479 55.4285 0C55.2019 0.434067 55.0755 0.488921 55.3713 0.953992C55.6098 1.33082 55.9007 1.62417 55.9699 1.89368L55.9818 1.89606Z" fill="white"/>
</svg>
